<svg width="48" height="48" viewBox="0 0 48 48" fill="none" xmlns="http://www.w3.org/2000/svg">
<path d="M10.9141 0.34375V5.38281H7.60938V42.8594H10.9141V47.8984H0.835938V0.34375H10.9141ZM27.625 34.2812V22.9844C27.625 22.1719 27.4922 21.4766 27.2266 20.8984C26.9609 20.3047 26.5469 19.8438 25.9844 19.5156C25.4375 19.1875 24.7266 19.0234 23.8516 19.0234C23.1016 19.0234 22.4531 19.1562 21.9062 19.4219C21.3594 19.6719 20.9375 20.0391 20.6406 20.5234C20.3438 20.9922 20.1953 21.5469 20.1953 22.1875H13.4453C13.4453 21.1094 13.6953 20.0859 14.1953 19.1172C14.6953 18.1484 15.4219 17.2969 16.375 16.5625C17.3281 15.8125 18.4609 15.2266 19.7734 14.8047C21.1016 14.3828 22.5859 14.1719 24.2266 14.1719C26.1953 14.1719 27.9453 14.5 29.4766 15.1562C31.0078 15.8125 32.2109 16.7969 33.0859 18.1094C33.9766 19.4219 34.4219 21.0625 34.4219 23.0312V33.8828C34.4219 35.2734 34.5078 36.4141 34.6797 37.3047C34.8516 38.1797 35.1016 38.9453 35.4297 39.6016V40H28.6094C28.2812 39.3125 28.0312 38.4531 27.8594 37.4219C27.7031 36.375 27.625 35.3281 27.625 34.2812ZM28.5156 24.5547L28.5625 28.375H24.7891C23.8984 28.375 23.125 28.4766 22.4688 28.6797C21.8125 28.8828 21.2734 29.1719 20.8516 29.5469C20.4297 29.9062 20.1172 30.3281 19.9141 30.8125C19.7266 31.2969 19.6328 31.8281 19.6328 32.4062C19.6328 32.9844 19.7656 33.5078 20.0312 33.9766C20.2969 34.4297 20.6797 34.7891 21.1797 35.0547C21.6797 35.3047 22.2656 35.4297 22.9375 35.4297C23.9531 35.4297 24.8359 35.2266 25.5859 34.8203C26.3359 34.4141 26.9141 33.9141 27.3203 33.3203C27.7422 32.7266 27.9609 32.1641 27.9766 31.6328L29.7578 34.4922C29.5078 35.1328 29.1641 35.7969 28.7266 36.4844C28.3047 37.1719 27.7656 37.8203 27.1094 38.4297C26.4531 39.0234 25.6641 39.5156 24.7422 39.9062C23.8203 40.2812 22.7266 40.4688 21.4609 40.4688C19.8516 40.4688 18.3906 40.1484 17.0781 39.5078C15.7812 38.8516 14.75 37.9531 13.9844 36.8125C13.2344 35.6562 12.8594 34.3438 12.8594 32.875C12.8594 31.5469 13.1094 30.3672 13.6094 29.3359C14.1094 28.3047 14.8438 27.4375 15.8125 26.7344C16.7969 26.0156 18.0234 25.4766 19.4922 25.1172C20.9609 24.7422 22.6641 24.5547 24.6016 24.5547H28.5156ZM37.3047 5.38281V0.34375H47.4062V47.8984H37.3047V42.8594H40.6562V5.38281H37.3047Z" fill="white"/>
</svg>
